<svg xmlns="http://www.w3.org/2000/svg" viewBox="0 0 48 30" role="img" aria-label="United States flag">
  <rect width="48" height="30" fill="#B22234"/>
  <rect y="2.3077" width="48" height="2.3077" fill="#FFFFFF"/>
  <rect y="6.9231" width="48" height="2.3077" fill="#FFFFFF"/>
  <rect y="11.5385" width="48" height="2.3077" fill="#FFFFFF"/>
  <rect y="16.1538" width="48" height="2.3077" fill="#FFFFFF"/>
  <rect y="20.7692" width="48" height="2.3077" fill="#FFFFFF"/>
  <rect y="25.3846" width="48" height="2.3077" fill="#FFFFFF"/>
  <rect width="19.2" height="16.1538" fill="#3C3B6E"/>
  <g fill="#FFFFFF">
    <g>
      <circle cx="1.7" cy="1.7" r=".72"/>
      <circle cx="4.7" cy="1.7" r=".72"/>
      <circle cx="7.7" cy="1.7" r=".72"/>
      <circle cx="10.7" cy="1.7" r=".72"/>
      <circle cx="13.7" cy="1.7" r=".72"/>
      <circle cx="16.7" cy="1.7" r=".72"/>
    </g>
    <g>
      <circle cx="3.2" cy="3.4" r=".72"/>
      <circle cx="6.2" cy="3.4" r=".72"/>
      <circle cx="9.2" cy="3.4" r=".72"/>
      <circle cx="12.2" cy="3.4" r=".72"/>
      <circle cx="15.2" cy="3.4" r=".72"/>
    </g>
    <g>
      <circle cx="1.7" cy="5.1" r=".72"/>
      <circle cx="4.7" cy="5.1" r=".72"/>
      <circle cx="7.7" cy="5.1" r=".72"/>
      <circle cx="10.7" cy="5.1" r=".72"/>
      <circle cx="13.7" cy="5.1" r=".72"/>
      <circle cx="16.7" cy="5.1" r=".72"/>
    </g>
    <g>
      <circle cx="3.2" cy="6.8" r=".72"/>
      <circle cx="6.2" cy="6.8" r=".72"/>
      <circle cx="9.2" cy="6.8" r=".72"/>
      <circle cx="12.2" cy="6.8" r=".72"/>
      <circle cx="15.2" cy="6.8" r=".72"/>
    </g>
    <g>
      <circle cx="1.7" cy="8.5" r=".72"/>
      <circle cx="4.7" cy="8.5" r=".72"/>
      <circle cx="7.7" cy="8.5" r=".72"/>
      <circle cx="10.7" cy="8.5" r=".72"/>
      <circle cx="13.7" cy="8.5" r=".72"/>
      <circle cx="16.7" cy="8.5" r=".72"/>
    </g>
    <g>
      <circle cx="3.2" cy="10.2" r=".72"/>
      <circle cx="6.2" cy="10.2" r=".72"/>
      <circle cx="9.2" cy="10.2" r=".72"/>
      <circle cx="12.2" cy="10.2" r=".72"/>
      <circle cx="15.2" cy="10.2" r=".72"/>
    </g>
    <g>
      <circle cx="1.7" cy="11.9" r=".72"/>
      <circle cx="4.7" cy="11.9" r=".72"/>
      <circle cx="7.7" cy="11.9" r=".72"/>
      <circle cx="10.7" cy="11.9" r=".72"/>
      <circle cx="13.7" cy="11.9" r=".72"/>
      <circle cx="16.7" cy="11.9" r=".72"/>
    </g>
    <g>
      <circle cx="3.2" cy="13.6" r=".72"/>
      <circle cx="6.2" cy="13.6" r=".72"/>
      <circle cx="9.2" cy="13.6" r=".72"/>
      <circle cx="12.2" cy="13.6" r=".72"/>
      <circle cx="15.2" cy="13.6" r=".72"/>
    </g>
    <g>
      <circle cx="1.7" cy="15.3" r=".72"/>
      <circle cx="4.7" cy="15.3" r=".72"/>
      <circle cx="7.7" cy="15.3" r=".72"/>
      <circle cx="10.7" cy="15.3" r=".72"/>
      <circle cx="13.7" cy="15.3" r=".72"/>
      <circle cx="16.7" cy="15.3" r=".72"/>
    </g>
  </g>
</svg>
